<?xml version="1.0" encoding="UTF-8"?>
<svg width="40px" height="40px" viewBox="0 0 40 40" version="1.1" xmlns="http://www.w3.org/2000/svg" xmlns:xlink="http://www.w3.org/1999/xlink">
    <title>Avatar@3x</title>
    <g id="Symbols" stroke="none" stroke-width="1" fill="none" fill-rule="evenodd">
        <g id="Profile-/-Dark-/-Offline" transform="translate(-15, -15)">
            <g id="Avatar" transform="translate(15, 15)">
                <circle id="Oval" stroke="#393536" stroke-width="2" cx="20" cy="20" r="19"></circle>
                <g id="Icons-/-User" transform="translate(5, 5)">
                    <rect id="Rectangle" fill-opacity="0" fill="#FFFFFF" x="0" y="0" width="30" height="30"></rect>
                    <g id="User" transform="translate(7, 5)" fill="#393536" fill-rule="nonzero">
                        <path d="M8,0 C5.247396,0 3,2.247396 3,5 C3,7.752604 5.247396,10 8,10 C10.752604,10 13,7.752604 13,5 C13,2.247396 10.752604,0 8,0 Z M8,1.5 C9.942708,1.5 11.5,3.057292 11.5,5 C11.5,6.942708 9.942708,8.5 8,8.5 C6.057292,8.5 4.5,6.942708 4.5,5 C4.5,3.057292 6.057292,1.5 8,1.5 Z M1.98958333,12 C0.898437333,12 0,12.8984373 0,13.9895833 L0,14.75 C0,16.5520833 1.14062533,17.9453127 2.653646,18.78125 C4.16666667,19.6171873 6.08333333,20 8,20 C9.91666667,20 11.8333333,19.6171873 13.346354,18.78125 C14.6380207,18.0703127 15.6093747,16.932292 15.880208,15.5 L16,15.5 L16,13.9895833 C16,12.8984373 15.1015627,12 14.0104167,12 L1.98958333,12 Z M1.98958333,13.5 L14.0104167,13.5 C14.2890627,13.5 14.5,13.7109373 14.5,13.9895833 L14.5,14.75 C14.5,15.9479167 13.8281253,16.8046873 12.622396,17.46875 C11.4166667,18.1328127 9.70833333,18.5 8,18.5 C6.29166667,18.5 4.58333333,18.1328127 3.377604,17.46875 C2.17187467,16.8046873 1.5,15.9479167 1.5,14.75 L1.5,13.9895833 C1.5,13.7109373 1.71093733,13.5 1.98958333,13.5 Z" id="Shape"></path>
                    </g>
                </g>
            </g>
        </g>
    </g>
</svg>