<?xml version="1.0" encoding="UTF-8"?>
<svg width="30px" height="30px" viewBox="0 0 30 30" version="1.1" xmlns="http://www.w3.org/2000/svg" xmlns:xlink="http://www.w3.org/1999/xlink">
    <title>Icons / Hang up</title>
    <g id="Icons-/-Hang-up" stroke="none" stroke-width="1" fill="none" fill-rule="evenodd">
        <rect id="Rectangle" fill-opacity="0" fill="#FFFFFF" x="0" y="0" width="30" height="30"></rect>
        <g id="End-Call" transform="translate(5, 6)" fill="#171718" fill-rule="nonzero">
            <path d="M10.0535742,2.27741994e-05 C5.86732285,-0.00516223737 3.04245402,0.875043643 1.07106761,2.60420615 C0.243765946,3.33076706 -0.146322331,4.40628514 0.0500310805,5.43232467 L0.249002368,6.46878017 C0.434883606,7.43752784 1.34858053,8.08856761 2.38008924,7.98960985 L4.43787157,7.79429765 C5.33586057,7.70575653 6.09771066,7.07554938 6.32809846,6.22919742 L6.95119309,4.09378589 C7.89107079,3.71097415 9.04824557,3.50003732 10.0535742,3.50003732 C11.0589028,3.50003732 12.108738,3.68493288 13.0486157,4.06774396 L13.6743282,6.20315615 C13.9020981,7.04690345 14.6665661,7.67971459 15.5645551,7.76565238 L17.6197188,7.96356791 C18.6538461,8.06252634 19.5649251,7.41148657 19.7508064,6.44273824 L19.9497777,5.40628273 C20.1461311,4.3802432 19.7586607,3.30472513 18.9287411,2.57816488 C16.9599726,0.849002373 14.2398255,0.00525373755 10.0535742,2.27741994e-05 Z M10.0404841,7.48954799 C9.62683296,7.4948197 9.29434197,7.83596422 9.29957772,8.25002588 L9.29957772,16.4401102 L7.32033702,14.4687609 C7.12922003,14.2734487 6.84908924,14.1953242 6.58466704,14.2630321 C6.32024484,14.3307406 6.11341925,14.5364694 6.04534979,14.7994894 C5.977281,15.0625095 6.05582197,15.3411548 6.25217538,15.5312584 L9.51949336,18.7812505 C9.81533208,19.0729165 10.2918163,19.0729165 10.587655,18.7812505 L13.854973,15.5312584 C14.0513264,15.3411548 14.1298674,15.0625095 14.0617986,14.7994894 C13.9937291,14.5364694 13.7869035,14.3307406 13.5224813,14.2630321 C13.2580591,14.1953242 12.9779283,14.2734487 12.7868113,14.4687609 L10.8075706,16.4401102 L10.8075706,8.25002588 C10.8101885,8.04690104 10.7316475,7.85158951 10.587655,7.70836052 C10.4410446,7.56513153 10.2446912,7.48700706 10.0404841,7.48954799 Z" id="Shape"></path>
        </g>
    </g>
</svg>