<?xml version="1.0" encoding="UTF-8"?>
<svg width="30px" height="30px" viewBox="0 0 30 30" version="1.1" xmlns="http://www.w3.org/2000/svg" xmlns:xlink="http://www.w3.org/1999/xlink">
    <title>Icons / Info</title>
    <g id="Icons-/-Info" stroke="none" stroke-width="1" fill="none" fill-rule="evenodd">
        <rect id="Rectangle" fill-opacity="0" fill="#FFFFFF" x="0" y="0" width="30" height="30"></rect>
        <g id="Info" transform="translate(5, 5)" fill="#171718" fill-rule="nonzero">
            <path d="M10,0 C4.48697933,0 0,4.48697933 0,10 C0,15.5130207 4.48697933,20 10,20 C15.5130207,20 20,15.5130207 20,10 C20,4.48697933 15.5130207,0 10,0 Z M10,1.5 C14.7031253,1.5 18.5,5.29687467 18.5,10 C18.5,14.7031253 14.7031253,18.5 10,18.5 C5.29687467,18.5 1.5,14.7031253 1.5,10 C1.5,5.29687467 5.29687467,1.5 10,1.5 Z M10,5 C9.44791667,5 9,5.44791667 9,6 C9,6.55208333 9.44791667,7 10,7 C10.5520833,7 11,6.55208333 11,6 C11,5.44791667 10.5520833,5 10,5 Z M9.98697933,8.48952027 C9.57552067,8.494792 9.244792,8.83593733 9.25,9.25 L9.25,14.75 C9.247396,15.0208333 9.38802067,15.2708333 9.622396,15.408854 C9.85677067,15.5442707 10.1432293,15.5442707 10.377604,15.408854 C10.6119793,15.2708333 10.752604,15.0208333 10.75,14.75 L10.75,9.25 C10.752604,9.04687467 10.6744793,8.85156267 10.53125,8.70833333 C10.3854167,8.565104 10.190104,8.48697933 9.98697933,8.48952027 Z" id="Shape"></path>
        </g>
    </g>
</svg>