<svg width="18" height="15" viewBox="0 0 18 15" fill="none" xmlns="http://www.w3.org/2000/svg">
<path d="M10.5 13.75C12.1576 13.75 13.7473 13.0915 14.9194 11.9194C16.0915 10.7473 16.75 9.1576 16.75 7.5C16.75 5.8424 16.0915 4.25269 14.9194 3.08058C13.7473 1.90848 12.1576 1.25 10.5 1.25C8.8424 1.25 7.25269 1.90848 6.08058 3.08058C4.90848 4.25269 4.25 5.8424 4.25 7.5C4.25 9.1576 4.90848 10.7473 6.08058 11.9194C7.25269 13.0915 8.8424 13.75 10.5 13.75ZM9.5625 10.3125C9.5625 10.0639 9.66127 9.8254 9.83709 9.64959C10.0129 9.47377 10.2514 9.375 10.5 9.375C10.7486 9.375 10.9871 9.47377 11.1629 9.64959C11.3387 9.8254 11.4375 10.0639 11.4375 10.3125C11.4375 10.5611 11.3387 10.7996 11.1629 10.9754C10.9871 11.1512 10.7486 11.25 10.5 11.25C10.2514 11.25 10.0129 11.1512 9.83709 10.9754C9.66127 10.7996 9.5625 10.5611 9.5625 10.3125ZM9.885 4.2625C9.91109 4.1184 9.98696 3.98803 10.0994 3.89416C10.2118 3.80028 10.3536 3.74886 10.5 3.74886C10.6464 3.74886 10.7882 3.80028 10.9006 3.89416C11.013 3.98803 11.0889 4.1184 11.115 4.2625L11.125 4.375V7.5L11.115 7.6125C11.0889 7.7566 11.013 7.88697 10.9006 7.98084C10.7882 8.07472 10.6464 8.12614 10.5 8.12614C10.3536 8.12614 10.2118 8.07472 10.0994 7.98084C9.98696 7.88697 9.91109 7.7566 9.885 7.6125L9.875 7.5V4.375L9.885 4.2625Z" fill="#BD4782"/>
</svg>