<?xml version="1.0" encoding="UTF-8"?>
<svg width="30px" height="30px" viewBox="0 0 30 30" version="1.1" xmlns="http://www.w3.org/2000/svg" xmlns:xlink="http://www.w3.org/1999/xlink">
    <title>Icons / Reset</title>
    <g id="Icons-/-Reset" stroke="none" stroke-width="1" fill="none" fill-rule="evenodd">
        <rect id="Rectangle" fill-opacity="0" fill="#FFFFFF" x="0" y="0" width="30" height="30"></rect>
        <g id="Reset" transform="translate(6, 6)" fill="#171718" fill-rule="nonzero">
            <path d="M15.7369793,0 C15.3255207,0.00526866127 14.994792,0.346215493 15,0.76003723 L15,2.31121745 C13.408854,0.882362011 11.3046873,0.0104736309 9,0.0104736309 C4.03906267,0.0104736309 0,4.04718609 0,9.00523682 C0,13.9632875 4.03906267,18 9,18 C13.9609373,18 18,13.9632875 18,9.00523682 C18,8.52895145 17.9531253,8.07609044 17.8880207,7.64404997 C17.8541667,7.37077175 17.6770833,7.13913594 17.4218747,7.03763237 C17.1692707,6.93352631 16.880208,6.97777122 16.6666667,7.15214903 C16.4557293,7.32392369 16.3541667,7.59980507 16.403646,7.86787833 C16.4635413,8.25307073 16.5,8.63045502 16.5,9.00523682 C16.5,13.1538628 13.1510413,16.5008728 9,16.5008728 C4.84895867,16.5008728 1.5,13.1538628 1.5,9.00523682 C1.5,4.85661084 4.84895867,1.50960083 9,1.50960083 C10.966146,1.50960083 12.7395833,2.27217752 14.0755207,3.50843709 L12.25,3.50843709 C11.9791667,3.50583461 11.7291667,3.64637745 11.591146,3.88061641 C11.4557293,4.1148547 11.4557293,4.40114668 11.591146,4.63538497 C11.7291667,4.86962393 11.9791667,5.01016677 12.25,5.00756429 L15.75,5.00756429 C16.1640627,5.00756429 16.5,4.67182243 16.5,4.25800069 L16.5,0.76003723 C16.502604,0.557030088 16.4244793,0.361831734 16.28125,0.218685742 C16.1354167,0.0755397489 15.940104,-0.00253945945 15.7369793,0 Z" id="Path"></path>
        </g>
    </g>
</svg>