<svg xmlns="http://www.w3.org/2000/svg" width="15" height="16" viewBox="0 0 15 16" fill="none">
  <path d="M10.5994 6.59375C10.3405 6.59375 10.1306 6.38388 10.1306 6.125L10.1306 1.75C10.1306 1.49112 10.3405 1.28125 10.5994 1.28125C10.8583 1.28125 11.0681 1.49112 11.0681 1.75L11.0681 6.125C11.0681 6.38388 10.8583 6.59375 10.5994 6.59375Z" fill="#BB225B"/>
  <path d="M4.375 8.3125C3.33947 8.3125 2.5 7.47303 2.5 6.4375C2.5 5.40197 3.33947 4.5625 4.375 4.5625C5.41053 4.5625 6.25 5.40197 6.25 6.4375C6.25 7.47303 5.41053 8.3125 4.375 8.3125Z" fill="#BB225B"/>
  <path d="M10.625 7.6875C9.58947 7.6875 8.75 8.52697 8.75 9.5625C8.75 10.598 9.58947 11.4375 10.625 11.4375C11.6605 11.4375 12.5 10.598 12.5 9.5625C12.5 8.52697 11.6605 7.6875 10.625 7.6875Z" fill="#BB225B"/>
  <path d="M3.88063 9.875C3.88063 9.61612 4.0905 9.40625 4.34938 9.40625C4.60826 9.40625 4.81813 9.61612 4.81813 9.875V14.25C4.81813 14.5089 4.60826 14.7188 4.34938 14.7188C4.0905 14.7188 3.88063 14.5089 3.88063 14.25V9.875Z" fill="#BB225B"/>
  <path d="M10.5994 14.7188C10.3405 14.7188 10.1306 14.5089 10.1306 14.25V13C10.1306 12.7411 10.3405 12.5312 10.5994 12.5312C10.8583 12.5312 11.0681 12.7411 11.0681 13V14.25C11.0681 14.5089 10.8583 14.7188 10.5994 14.7188Z" fill="#BB225B"/>
  <path d="M3.88063 1.75C3.88063 1.49112 4.0905 1.28125 4.34938 1.28125C4.60826 1.28125 4.81813 1.49112 4.81813 1.75V3C4.81813 3.25888 4.60826 3.46875 4.34938 3.46875C4.0905 3.46875 3.88063 3.25888 3.88063 3V1.75Z" fill="#BB225B"/>
</svg>