<svg xmlns="http://www.w3.org/2000/svg" xmlns:xlink="http://www.w3.org/1999/xlink" width="649px" height="213px" viewBox="0 0 649 213" version="1.1">
    <g stroke="none" stroke-width="1" fill="none" fill-rule="evenodd">
        <g id="Logo">
            <path d="M16.7269,19.605 C15.4359,21.9104 14.9386,24.5764 15.3117,27.1923 C15.6177,29.3235 16.4884,31.3341 17.8334,33.0154 C19.1785,34.6967 20.9489,35.9875 22.961,36.7539 C25.4312,37.6921 28.1412,37.7922 30.6738,37.0387 C33.2065,36.2853 35.4212,34.7202 36.9769,32.5843 C38.5326,30.4485 39.3429,27.8605 39.2832,25.2189 C39.2234,22.5772 38.2969,20.0284 36.6462,17.9651 C34.9956,15.9018 32.7124,14.4384 30.1483,13.8002 C27.5842,13.1621 24.8814,13.3846 22.4562,14.4335 C20.031,15.4824 18.0179,17.2995 16.7269,19.605 Z" id="Path" fill="#231F20" fill-rule="nonzero"/>
            <path d="M16.1782,117.568 C16.1782,123.305 12.9082,126.862 8.26124,126.862 L0,126.862 L0,143.9 C1.72109,145.105 6.36805,146.138 11.015,146.138 C25.6442,146.138 38.036,134.779 38.036,120.149 L38.036,49.0583 L16.1782,49.0583 L16.1782,117.568 Z" id="Path" fill="#231F20" fill-rule="nonzero"/>
            <path d="M130.732,99.9951 L130.732,117.894 C128.897,118.753 126.905,119.222 124.88,119.271 C120.637,119.338 116.45,118.293 112.736,116.24 C109.022,114.187 105.91,111.197 103.711,107.568 C100.986,111.254 97.4234,114.238 93.3164,116.274 C89.2094,118.309 84.6767,119.336 80.0935,119.271 C60.9703,119.271 46.0159,103.437 46.0159,83.4727 C46.0159,63.508 60.9703,47.674 80.0935,47.674 C87.3363,47.559 94.3513,50.205 99.7139,55.0747 L99.7139,49.0509 L121.572,49.0509 L121.572,93.2829 C121.572,99.0198 124.67,99.9951 127.596,99.9951 L130.732,99.9951 Z M100.785,83.4727 C100.771,80.6486 100.032,77.8754 98.6391,75.4189 C97.2458,72.9625 95.2448,70.9052 92.8279,69.4443 C90.4111,67.9835 87.6594,67.168 84.8368,67.0762 C82.0143,66.9843 79.2154,67.6192 76.7087,68.9199 C74.9128,69.7893 73.3102,71.0109 71.9961,72.5123 C70.682,74.0137 69.6833,75.764 69.0594,77.6592 C68.2216,79.9061 67.8872,82.3096 68.0796,84.6999 C68.2721,87.0902 68.9867,89.4091 70.1732,91.4931 C71.3597,93.5771 72.989,95.3753 74.9462,96.7609 C76.9035,98.1464 79.141,99.0856 81.5008,99.512 C83.8606,99.9385 86.2852,99.8419 88.6036,99.2291 C90.9221,98.6162 93.0778,97.502 94.9186,95.9651 C96.7594,94.4283 98.2405,92.5062 99.2574,90.3344 C100.274,88.1627 100.802,85.7942 100.804,83.3961 L100.785,83.4727 Z" id="Shape" fill="#231F20" fill-rule="nonzero"/>
            <path d="M140.612,117.895 L140.612,49.0486 L162.641,49.0486 L162.641,56.7958 C164.992,53.9589 167.937,51.6718 171.267,50.0958 C174.598,48.5198 178.233,47.6932 181.918,47.6741 C191.344,47.6741 199.432,52.946 203.683,61.0366 C204.639,59.6404 205.802,58.0306 206.871,56.7958 C209.242,54.0553 212.166,51.6718 215.497,50.0958 C218.827,48.5198 222.462,47.6932 226.147,47.6741 C240.088,47.6741 251.103,59.2054 251.103,74.3318 L251.103,117.875 L229.073,117.875 L229.073,77.9652 C229.133,76.5544 228.904,75.1462 228.402,73.8264 C227.9,72.5066 227.135,71.3028 226.153,70.2884 C225.171,69.274 223.992,68.4701 222.689,67.9258 C221.386,67.3815 219.986,67.1082 218.574,67.1224 C215.462,67.1919 212.5,68.4707 210.315,70.6877 C208.172,72.862 206.943,75.7711 206.873,78.8186 L206.873,117.875 L184.844,117.875 L184.844,77.9652 C184.903,76.5544 184.675,75.1462 184.173,73.8264 C183.671,72.5066 182.906,71.3028 181.923,70.2884 C180.941,69.274 179.763,68.4701 178.46,67.9258 C177.157,67.3815 175.757,67.1082 174.345,67.1224 C171.233,67.1919 168.271,68.4707 166.086,70.6877 C163.901,72.9047 162.666,75.8854 162.641,78.9979 L162.641,117.895 L140.612,117.895 Z" id="Path" fill="#231F20" fill-rule="nonzero"/>
            <path d="M284.925,111.959 L284.925,117.895 L262.895,117.895 L262.895,0 L284.925,0 L284.925,55.0664 C290.286,50.2021 297.297,47.5592 304.536,47.6741 C323.659,47.6741 338.613,63.5081 338.613,83.4728 C338.613,103.437 323.659,119.271 304.536,119.271 C299.953,119.337 295.42,118.309 291.313,116.274 C288.992,115.124 286.845,113.671 284.925,111.959 Z M285.99,75.4191 C284.597,77.8755 283.858,80.6487 283.845,83.4728 L283.825,83.3963 C283.827,85.7943 284.355,88.1628 285.372,90.3346 C286.389,92.5063 287.87,94.4284 289.711,95.9652 C291.552,97.5021 293.707,98.6163 296.026,99.2292 C298.344,99.842 300.769,99.9387 303.129,99.5122 C305.488,99.0857 307.726,98.1465 309.683,96.761 C311.64,95.3754 313.27,93.5772 314.456,91.4932 C315.643,89.4093 316.357,87.0903 316.55,84.7 C316.742,82.3097 316.408,79.9063 315.57,77.6593 C314.946,75.7641 313.947,74.0138 312.633,72.5124 C311.319,71.0111 309.717,69.7894 307.921,68.92 C305.414,67.6194 302.615,66.9845 299.793,67.0763 C296.97,67.1681 294.218,67.9836 291.801,69.4445 C289.385,70.9053 287.384,72.9626 285.99,75.4191 Z" id="Shape" fill="#231F20"/>
            <path d="M346.581,83.4727 C346.581,62.8197 361.879,47.6741 384.961,47.6741 C408.043,47.6741 423.207,62.8197 423.207,83.4727 C423.207,104.126 408.062,119.271 384.961,119.271 C361.86,119.271 346.581,104.126 346.581,83.4727 Z M401.311,83.4727 C401.311,80.2389 400.352,77.0778 398.556,74.389 C396.759,71.7002 394.206,69.6045 391.218,68.367 C388.23,67.1295 384.943,66.8057 381.771,67.4366 C378.6,68.0674 375.686,69.6246 373.4,71.9113 C371.113,74.1979 369.556,77.1113 368.925,80.2829 C368.294,83.4546 368.618,86.7421 369.855,89.7297 C371.093,92.7174 373.188,95.271 375.877,97.0676 C378.566,98.8641 381.727,99.823 384.961,99.823 C387.112,99.8462 389.246,99.4388 391.237,98.6246 C393.228,97.8104 395.036,96.606 396.554,95.0823 C398.072,93.5586 399.27,91.7464 400.078,89.7526 C400.885,87.7588 401.285,85.6235 401.254,83.4727 L401.311,83.4727 Z" id="Shape" fill="#231F20" fill-rule="nonzero"/>
            <path d="M431.175,49.0431 L431.175,117.895 L453.205,117.895 L453.205,78.9979 C453.229,75.8854 454.464,72.9047 456.649,70.6877 C458.834,68.4707 461.796,67.1919 464.908,67.1224 C466.32,67.1082 467.72,67.3815 469.023,67.9258 C470.326,68.4701 471.505,69.274 472.487,70.2884 C473.469,71.3028 474.235,72.5066 474.737,73.8264 C475.239,75.1462 475.467,76.5544 475.407,77.9652 L475.407,117.875 L497.437,117.875 L497.437,74.3318 C497.437,59.2054 486.422,47.6741 472.481,47.6741 C468.797,47.6932 465.161,48.5198 461.831,50.0958 C458.5,51.6718 455.556,53.9589 453.205,56.7958 L453.205,49.0431 L431.175,49.0431 Z" id="Path" fill="#231F20" fill-rule="nonzero"/>
            <path d="M552.288,67.2054 C550.533,65.2934 547.308,63.3419 541.476,63.5469 C529.761,63.9587 523.766,75.0885 525.135,81.5759 C526.226,86.7428 522.921,91.8154 517.754,92.9059 C512.587,93.9964 507.515,90.6918 506.424,85.5249 C502.712,67.9368 516.694,45.283 540.804,44.4355 C551.73,44.0515 560.519,47.8936 566.376,54.2733 C572.026,60.4288 574.505,68.4947 573.837,75.8471 C572.514,90.4014 561.294,98.132 553.314,103.169 L552.947,103.401 C560.751,105.477 567.732,109.3 573.654,114.473 C581.83,121.615 587.724,131.083 591.132,141.515 C602.593,146.006 613.885,152.148 624.164,160.113 C625.588,154.886 629.044,147.961 632.213,145.361 C640.793,161.753 646.346,185.684 648.305,203.786 C636.364,198.042 613.993,190.787 598.981,188.666 C601.859,183.086 607.729,177.682 612.267,175.088 C606.644,170.752 600.635,167.037 594.441,163.914 C593.768,176.812 587.773,188.12 579.654,196.456 C570.419,205.94 557.705,212.351 545.014,212.939 C533.206,213.486 522.067,210.344 513.76,203.503 C505.292,196.53 500.444,186.23 500.745,174.206 C501.035,162.596 505.809,151.435 514.635,143.457 C523.54,135.409 535.977,131.123 550.61,132.187 C555.615,132.551 560.807,133.234 566.097,134.255 C564.577,132.272 562.896,130.467 561.073,128.875 C553.309,122.093 542.394,118.61 528.39,122.148 C528.065,122.23 527.739,122.295 527.412,122.342 C522.518,123.318 518.103,123.096 516.388,120.409 C514.27,117.092 514.163,112.712 519.024,106.168 C522.272,101.538 526.394,98.0112 530.331,95.1763 C533.391,92.973 536.851,90.8513 539.885,88.9914 C541.035,88.2863 542.124,87.6186 543.106,86.9986 C551.38,81.7756 554.396,78.4765 554.792,74.1157 C554.978,72.0653 554.249,69.3415 552.288,67.2054 Z M574.952,156.124 C566.16,153.452 557.408,151.855 549.223,151.26 C539.229,150.533 532.089,153.458 527.458,157.644 C522.749,161.9 520.029,167.996 519.862,174.684 C519.705,180.957 522.088,185.588 525.917,188.741 C529.907,192.027 536.131,194.207 544.128,193.836 C551.243,193.507 559.559,189.682 565.954,183.114 C572.254,176.645 575.96,168.286 575.305,159.444 C575.222,158.326 575.104,157.219 574.952,156.124 Z" id="Shape" fill="#DA1C5C"/>
        </g>
    </g>
</svg>